<?xml version="1.0" encoding="UTF-8" standalone="no"?>
<!-- Created with Inkscape (http://www.inkscape.org/) -->

<svg
   xmlns:dc="http://purl.org/dc/elements/1.1/"
   xmlns:cc="http://creativecommons.org/ns#"
   xmlns:rdf="http://www.w3.org/1999/02/22-rdf-syntax-ns#"
   xmlns:svg="http://www.w3.org/2000/svg"
   xmlns="http://www.w3.org/2000/svg"
   xmlns:sodipodi="http://sodipodi.sourceforge.net/DTD/sodipodi-0.dtd"
   xmlns:inkscape="http://www.inkscape.org/namespaces/inkscape"
   width="24"
   height="24"
   viewBox="0 0 6.3499999 6.3500002"
   version="1.1"
   id="svg8"
   inkscape:version="0.92.0 r"
   sodipodi:docname="cogwheel.svg">
  <title
     id="title4578">Cogwheel icon for Coloring Book</title>
  <defs
     id="defs2" />
  <sodipodi:namedview
     id="base"
     pagecolor="#ffffff"
     bordercolor="#666666"
     borderopacity="1.0"
     inkscape:pageopacity="0.0"
     inkscape:pageshadow="2"
     inkscape:zoom="21.272129"
     inkscape:cx="-10.517727"
     inkscape:cy="12"
     inkscape:document-units="mm"
     inkscape:current-layer="layer1"
     showgrid="false"
     units="px"
     inkscape:snap-nodes="true"
     inkscape:snap-object-midpoints="true"
     inkscape:object-nodes="false"
     inkscape:window-width="1920"
     inkscape:window-height="955"
     inkscape:window-x="0"
     inkscape:window-y="1"
     inkscape:window-maximized="1" />
  <metadata
     id="metadata5">
    <rdf:RDF>
      <cc:Work
         rdf:about="">
        <dc:format>image/svg+xml</dc:format>
        <dc:type
           rdf:resource="http://purl.org/dc/dcmitype/StillImage" />
        <dc:title>Cogwheel icon for Coloring Book</dc:title>
        <dc:rights>
          <cc:Agent>
            <dc:title>(c) 2017 Research Software Lab, Centre for Digital Humanities, Utrecht University</dc:title>
          </cc:Agent>
        </dc:rights>
        <dc:subject>
          <rdf:Bag>
            <rdf:li>cogwheel</rdf:li>
            <rdf:li>icon</rdf:li>
          </rdf:Bag>
        </dc:subject>
        <dc:date>2017-01-31</dc:date>
        <cc:license
           rdf:resource="http://creativecommons.org/licenses/by/4.0/" />
      </cc:Work>
      <cc:License
         rdf:about="http://creativecommons.org/licenses/by/4.0/">
        <cc:permits
           rdf:resource="http://creativecommons.org/ns#Reproduction" />
        <cc:permits
           rdf:resource="http://creativecommons.org/ns#Distribution" />
        <cc:requires
           rdf:resource="http://creativecommons.org/ns#Notice" />
        <cc:requires
           rdf:resource="http://creativecommons.org/ns#Attribution" />
        <cc:permits
           rdf:resource="http://creativecommons.org/ns#DerivativeWorks" />
      </cc:License>
    </rdf:RDF>
  </metadata>
  <g
     inkscape:label="Laag 1"
     inkscape:groupmode="layer"
     id="layer1"
     transform="translate(0,-290.64998)">
    <path
       style="fill:#808080;fill-opacity:1;stroke:none;stroke-width:0.79374999;stroke-linecap:butt;stroke-linejoin:round;stroke-miterlimit:4;stroke-dasharray:none;stroke-opacity:1"
       d="m 3.3032922,290.71003 c -0.095605,-0.003 -0.192166,-0.004 -0.2895896,0.002 -0.2040079,0.0116 -0.4013131,0.0435 -0.592146,0.0916 0.020121,0.32387 0.041939,0.58721 0.064048,0.84677 a 2.295802,2.295802 0 0 0 -0.5862521,0.2884 c -0.1919247,-0.17693 -0.3872101,-0.35632 -0.631439,-0.57131 -0.2344794,0.18293 -0.44152571,0.39804 -0.61493603,0.63889 0.22392065,0.23553 0.41052543,0.42374 0.59450363,0.60865 a 2.295802,2.295802 0 0 0 -0.26404921,0.59765 c -0.25996047,-0.0121 -0.52384493,-0.0237 -0.8479437,-0.0314 -0.05648102,0.26661 -0.08254918,0.54429 -0.06640525,0.82987 0.0010463,0.0185 0.0045333,0.0362 0.0058936,0.0546 0.32181933,0.0363 0.58426814,0.0604 0.84322852,0.0837 a 2.295802,2.295802 0 0 0 0.18074794,0.62869 c -0.20695105,0.15779 -0.41640957,0.31825 -0.66955328,0.52063 0.14001228,0.26441 0.31610118,0.50517 0.52220442,0.7167 0.27027656,-0.17926 0.48730256,-0.32973 0.70098776,-0.47859 a 2.295802,2.295802 0 0 0 0.5426368,0.36543 c -0.057022,0.25363 -0.1142374,0.51095 -0.1779975,0.82829 0.2710698,0.10964 0.5599381,0.18176 0.8613034,0.2114 0.091524,-0.31012 0.160899,-0.5639 0.2286855,-0.81454 a 2.295802,2.295802 0 0 0 0.2133612,-0.002 2.295802,2.295802 0 0 0 0.4369383,-0.0696 c 0.1194472,0.23098 0.2408268,0.46503 0.3960739,0.74931 0.286768,-0.0923 0.5538132,-0.22378 0.7964699,-0.389 -0.1296324,-0.29733 -0.240242,-0.53745 -0.349708,-0.77368 A 2.295802,2.295802 0 0 0 5.053404,295.1729 c 0.2405129,0.1005 0.4849522,0.20194 0.7874323,0.32023 0.1563143,-0.24943 0.2771997,-0.52188 0.3583525,-0.811 -0.2906678,-0.14457 -0.5299487,-0.25753 -0.7658211,-0.36818 a 2.295802,2.295802 0 0 0 0.049902,-0.60983 2.295802,2.295802 0 0 0 -0.00393,-0.042 c 0.2480987,-0.0774 0.4995972,-0.15628 0.8062932,-0.25972 -0.041599,-0.30107 -0.1260512,-0.58648 -0.2455814,-0.85227 -0.3154029,0.0761 -0.570761,0.14343 -0.8224033,0.21022 a 2.295802,2.295802 0 0 0 -0.3850719,-0.52732 c 0.1410936,-0.21989 0.2839576,-0.44369 0.4534418,-0.72181 -0.2196153,-0.19811 -0.4674421,-0.36432 -0.7359585,-0.49391 -0.1933567,0.26182 -0.3464028,0.47847 -0.496664,0.69195 a 2.295802,2.295802 0 0 0 -0.6337968,-0.15718 c -0.033238,-0.25852 -0.067504,-0.52087 -0.1163073,-0.84204 z m -0.071906,2.19491 a 0.92970234,0.92970234 0 0 1 0.8880227,0.87663 0.92970234,0.92970234 0 0 1 -0.8758419,0.98036 0.92970234,0.92970234 0 0 1 -0.9807541,-0.87545 0.92970234,0.92970234 0 0 1 0.8758419,-0.98075 0.92970234,0.92970234 0 0 1 0.092731,-7.6e-4 z"
       id="path4554"
       inkscape:connector-curvature="0" />
    <g
       id="g4524"
       transform="translate(-40.493728,-6.7966505)">
      <path
         sodipodi:type="star"
         style="fill:#808080;fill-opacity:1;stroke:none;stroke-width:0.79374999;stroke-linecap:butt;stroke-linejoin:round;stroke-miterlimit:4;stroke-dasharray:none;stroke-opacity:1"
         id="path4512"
         sodipodi:sides="9"
         sodipodi:cx="3.1592591"
         sodipodi:cy="293.89047"
         sodipodi:r1="18.688253"
         sodipodi:r2="1.4257692"
         sodipodi:arg1="-0.22449191"
         sodipodi:arg2="0.12457394"
         inkscape:flatsided="false"
         inkscape:rounded="-0.04"
         inkscape:randomized="0"
         d="m 21.378574,289.73026 c -0.154539,-0.67679 -16.8908518,5.0262 -16.8045944,4.33737 0.086257,-0.68884 14.8995674,8.96488 15.2162174,8.34709 0.31665,-0.61779 -16.1699223,-7.00694 -15.661072,-7.47917 0.5088504,-0.47224 5.6512181,16.44475 6.290894,16.17503 0.639675,-0.26971 -7.8829062,-15.76145 -7.1895596,-15.79612 0.6933467,-0.0347 -6.2413988,16.22995 -5.578009,16.43451 0.6633898,0.20456 4.0926096,-17.14101 4.646028,-16.72189 0.5534184,0.41912 -15.2135954,8.42096 -14.8368994,9.00409 0.376697,0.58312 14.1531478,-10.5001 14.3076872,-9.82331 0.1545395,0.6768 -17.0671822,-3.32827 -17.1534392,-2.63944 -0.08626,0.68883 17.5912703,1.05393 17.2746201,1.67172 -0.3166502,0.61779 -10.9348444,-13.52018 -11.4436948,-13.04795 -0.5088503,0.47223 12.7982426,12.11481 12.158567,12.38452 -0.6396757,0.26972 0.3140286,-17.38584 -0.3793181,-17.35117 -0.6933466,0.0347 2.0167746,17.50703 1.3533848,17.30247 -0.6633898,-0.20456 11.415964,-13.11648 10.862546,-13.53559 -0.553418,-0.41912 -9.7083649,14.70752 -10.0850613,14.1244 -0.3766965,-0.58313 17.1762433,-2.70977 17.0217033,-3.38656 z"
         inkscape:transform-center-x="-0.18307081"
         inkscape:transform-center-y="-0.09224553" />
      <circle
         style="fill:#808080;fill-opacity:1;stroke:none;stroke-width:0.79374999;stroke-linecap:butt;stroke-linejoin:round;stroke-miterlimit:4;stroke-dasharray:none;stroke-opacity:1"
         id="circle4514"
         cx="3.1592591"
         cy="293.89047"
         r="2.9424469" />
      <circle
         r="4.5097899"
         cy="293.89047"
         cx="3.1592591"
         id="circle4516"
         style="fill:none;fill-opacity:1;stroke:#ffffff;stroke-width:0.79374999;stroke-linecap:butt;stroke-linejoin:round;stroke-miterlimit:4;stroke-dasharray:none;stroke-opacity:1" />
      <circle
         r="1.2995914"
         cy="293.89047"
         cx="3.1592591"
         id="circle4518"
         style="fill:#ffffff;fill-opacity:1;stroke:none;stroke-width:0.79374999;stroke-linecap:butt;stroke-linejoin:round;stroke-miterlimit:4;stroke-dasharray:none;stroke-opacity:1" />
    </g>
  </g>
</svg>
